<svg width="13" height="17" viewBox="0 0 13 17" fill="none" xmlns="http://www.w3.org/2000/svg">
<path fill-rule="evenodd" clip-rule="evenodd" d="M4.41552 5.06383C5.22331 5.06383 5.92686 4.6258 6.29306 3.97855C6.39687 3.79506 6.58007 3.65957 6.79089 3.65957H7.49239C7.76853 3.65957 7.99239 3.88343 7.99239 4.15957V4.56383C7.99239 4.83997 8.21624 5.06383 8.49238 5.06383H8.92313C9.19927 5.06383 9.42313 4.83997 9.42313 4.56383V4.01726C9.42313 3.81972 9.58327 3.65957 9.78082 3.65957C9.97836 3.65957 10.1385 3.49943 10.1385 3.30189V2.75532C10.1385 2.47918 9.91465 2.25532 9.6385 2.25532H6.79089C6.58007 2.25532 6.39687 2.11984 6.29306 1.93635C5.92686 1.28909 5.22331 0.851063 4.41552 0.851063C3.23025 0.851063 2.2694 1.79412 2.2694 2.95745C2.2694 4.12077 3.23025 5.06383 4.41552 5.06383ZM5.13089 2.95745C5.13089 3.34522 4.81061 3.65957 4.41552 3.65957C4.02043 3.65957 3.70015 3.34522 3.70015 2.95745C3.70015 2.56967 4.02043 2.25532 4.41552 2.25532C4.81061 2.25532 5.13089 2.56967 5.13089 2.95745ZM0.143208 11.3145C0.129986 11.3599 0.12328 11.407 0.12328 11.4543V16.2979C0.12328 16.684 0.445198 17 0.83865 17H1.55402C1.94748 17 2.2694 16.684 2.2694 16.2979V16.0957C2.2694 15.8196 2.49326 15.5957 2.7694 15.5957H10.3539C10.63 15.5957 10.8539 15.8196 10.8539 16.0957V16.2979C10.8539 16.684 11.1758 17 11.5693 17H12.2846C12.6781 17 13 16.684 13 16.2979V11.4543C13 11.407 12.9933 11.3599 12.9801 11.3145L11.8657 7.48656C11.6902 6.88371 11.1288 6.46808 10.49 6.46808H8.70776H4.41552H2.63324C1.99444 6.46808 1.43303 6.88371 1.25754 7.48656L0.143208 11.3145ZM1.55402 13.1383C1.55402 13.7211 2.03333 14.1915 2.62708 14.1915C3.22084 14.1915 3.70015 13.7211 3.70015 13.1383C3.70015 12.5555 3.22084 12.0851 2.62708 12.0851C2.03333 12.0851 1.55402 12.5555 1.55402 13.1383ZM9.42313 13.1383C9.42313 13.7211 9.90243 14.1915 10.4962 14.1915C11.09 14.1915 11.5693 13.7211 11.5693 13.1383C11.5693 12.5555 11.09 12.0851 10.4962 12.0851C9.90243 12.0851 9.42313 12.5555 9.42313 13.1383ZM2.2063 9.33897C2.11316 9.65892 2.35314 9.97872 2.68637 9.97872H10.4369C10.7701 9.97872 11.0101 9.65891 10.917 9.33897L10.5949 8.23259C10.5328 8.01913 10.3372 7.87234 10.1148 7.87234H3.00844C2.78613 7.87234 2.59051 8.01913 2.52837 8.23259L2.2063 9.33897Z" fill="#26224D"/>
</svg>
