<svg width="24" height="24" viewBox="0 0 24 24" fill="none" xmlns="http://www.w3.org/2000/svg">
<path fill-rule="evenodd" clip-rule="evenodd" d="M9 8C10.3807 8 11.5 6.88071 11.5 5.5C11.5 4.11929 10.3807 3 9 3C7.61929 3 6.5 4.11929 6.5 5.5C6.5 6.88071 7.61929 8 9 8ZM4.5 12C5.88071 12 7 10.8807 7 9.5C7 8.11929 5.88071 7 4.5 7C3.11929 7 2 8.11929 2 9.5C2 10.8807 3.11929 12 4.5 12ZM17.5 5.5C17.5 6.88071 16.3807 8 15 8C13.6193 8 12.5 6.88071 12.5 5.5C12.5 4.11929 13.6193 3 15 3C16.3807 3 17.5 4.11929 17.5 5.5ZM19.5 12C20.8807 12 22 10.8807 22 9.5C22 8.11929 20.8807 7 19.5 7C18.1193 7 17 8.11929 17 9.5C17 10.8807 18.1193 12 19.5 12ZM16.4437 13.8056C16.7334 14.147 17.0277 14.4938 17.34 14.86C17.4179 14.9379 17.4968 15.0162 17.5763 15.0951L17.5765 15.0953C18.8347 16.3446 20.2416 17.7413 19.95 19.66C19.66 20.67 18.93 21.69 17.62 21.98C17.284 22.0444 16.6092 21.9564 15.7368 21.8425L15.7368 21.8425L15.7367 21.8425C14.7135 21.709 13.4186 21.54 12.08 21.54H11.9C10.5726 21.54 9.28825 21.709 8.26915 21.8431L8.26911 21.8431L8.26907 21.8431C7.38416 21.9596 6.69928 22.0497 6.36001 21.98C5.05001 21.69 4.32001 20.68 4.03001 19.66C3.74798 17.7516 5.15392 16.3559 6.41176 15.1071C6.49194 15.0275 6.57151 14.9485 6.65001 14.87C7.21403 14.2162 7.71643 13.6241 8.23356 13.0146L8.23365 13.0145L8.23371 13.0145L8.23403 13.0141C8.5236 12.6728 8.81779 12.3261 9.13001 11.96C9.60001 11.42 10.18 10.88 10.88 10.64C10.99 10.6 11.1 10.57 11.21 10.55C11.47 10.5 11.74 10.5 12 10.5C12.26 10.5 12.53 10.5 12.78 10.54C12.89 10.56 13 10.59 13.11 10.63C13.81 10.87 14.4 11.41 14.86 11.95C15.4241 12.6038 15.9265 13.196 16.4437 13.8056ZM11 14H13V16H15V18H13V20H11V18H9V16H11V14Z" fill="#FF5A5F"/>
</svg>
